<svg xmlns="http://www.w3.org/2000/svg" xmlns:xlink="http://www.w3.org/1999/xlink" width="500" zoomAndPan="magnify" viewBox="0 0 375 374.999991" height="500" preserveAspectRatio="xMidYMid meet" version="1.0"><defs><g/><clipPath id="c403e896cf"><path d="M 84.417969 84.417969 L 290.582031 84.417969 L 290.582031 290.582031 L 84.417969 290.582031 Z M 84.417969 84.417969 " clip-rule="nonzero"/></clipPath><clipPath id="1699f2731f"><path d="M 187.5 84.417969 C 130.570312 84.417969 84.417969 130.570312 84.417969 187.5 C 84.417969 244.429688 130.570312 290.582031 187.5 290.582031 C 244.429688 290.582031 290.582031 244.429688 290.582031 187.5 C 290.582031 130.570312 244.429688 84.417969 187.5 84.417969 Z M 187.5 84.417969 " clip-rule="nonzero"/></clipPath><clipPath id="206a5f6f35"><path d="M 84.417969 84.417969 L 290.574219 84.417969 L 290.574219 290.574219 L 84.417969 290.574219 Z M 84.417969 84.417969 " clip-rule="nonzero"/></clipPath><clipPath id="043963ba4b"><path d="M 187.496094 84.417969 C 130.570312 84.417969 84.417969 130.570312 84.417969 187.496094 C 84.417969 244.425781 130.570312 290.574219 187.496094 290.574219 C 244.425781 290.574219 290.574219 244.425781 290.574219 187.496094 C 290.574219 130.570312 244.425781 84.417969 187.496094 84.417969 Z M 187.496094 84.417969 " clip-rule="nonzero"/></clipPath><clipPath id="ce6114c837"><path d="M 106.355469 106.355469 L 268.355469 106.355469 L 268.355469 268.355469 L 106.355469 268.355469 Z M 106.355469 106.355469 " clip-rule="nonzero"/></clipPath><clipPath id="38d053eeb3"><path d="M 187.496094 106.355469 C 142.683594 106.355469 106.355469 142.683594 106.355469 187.496094 C 106.355469 232.308594 142.683594 268.636719 187.496094 268.636719 C 232.308594 268.636719 268.636719 232.308594 268.636719 187.496094 C 268.636719 142.683594 232.308594 106.355469 187.496094 106.355469 Z M 187.496094 106.355469 " clip-rule="nonzero"/></clipPath><clipPath id="e24f5cd7c6"><path d="M 129.921875 129.921875 L 245.070312 129.921875 L 245.070312 245.070312 L 129.921875 245.070312 Z M 129.921875 129.921875 " clip-rule="nonzero"/></clipPath><clipPath id="79bed6d71c"><path d="M 187.496094 129.921875 C 155.699219 129.921875 129.921875 155.699219 129.921875 187.496094 C 129.921875 219.296875 155.699219 245.070312 187.496094 245.070312 C 219.296875 245.070312 245.070312 219.296875 245.070312 187.496094 C 245.070312 155.699219 219.296875 129.921875 187.496094 129.921875 Z M 187.496094 129.921875 " clip-rule="nonzero"/></clipPath><clipPath id="9ad8095081"><path d="M 91.5625 170.957031 L 124.648438 170.957031 L 124.648438 204.042969 L 91.5625 204.042969 Z M 91.5625 170.957031 " clip-rule="nonzero"/></clipPath><clipPath id="7dd8970da9"><path d="M 108.105469 170.957031 C 98.96875 170.957031 91.5625 178.363281 91.5625 187.5 C 91.5625 196.636719 98.96875 204.042969 108.105469 204.042969 C 117.242188 204.042969 124.648438 196.636719 124.648438 187.5 C 124.648438 178.363281 117.242188 170.957031 108.105469 170.957031 Z M 108.105469 170.957031 " clip-rule="nonzero"/></clipPath><clipPath id="37362b2de0"><path d="M 248.882812 170.957031 L 281.96875 170.957031 L 281.96875 204.042969 L 248.882812 204.042969 Z M 248.882812 170.957031 " clip-rule="nonzero"/></clipPath><clipPath id="0cb08a6bad"><path d="M 265.425781 170.957031 C 256.289062 170.957031 248.882812 178.363281 248.882812 187.5 C 248.882812 196.636719 256.289062 204.042969 265.425781 204.042969 C 274.5625 204.042969 281.96875 196.636719 281.96875 187.5 C 281.96875 178.363281 274.5625 170.957031 265.425781 170.957031 Z M 265.425781 170.957031 " clip-rule="nonzero"/></clipPath><clipPath id="abffa5d2c7"><path d="M 95.148438 174.203125 L 121.398438 174.203125 L 121.398438 200.453125 L 95.148438 200.453125 Z M 95.148438 174.203125 " clip-rule="nonzero"/></clipPath><clipPath id="1b36cde65a"><path d="M 252.46875 174.203125 L 278.71875 174.203125 L 278.71875 200.453125 L 252.46875 200.453125 Z M 252.46875 174.203125 " clip-rule="nonzero"/></clipPath><clipPath id="0dc3573f48"><path d="M 173.929688 139.554688 L 201.113281 139.554688 L 201.113281 165.429688 L 173.929688 165.429688 Z M 173.929688 139.554688 " clip-rule="nonzero"/></clipPath><clipPath id="364454a43e"><path d="M 187.5 139.554688 L 190.703125 149.4375 L 201.070312 149.4375 L 192.683594 155.546875 L 195.886719 165.429688 L 187.5 159.320312 L 179.113281 165.429688 L 182.316406 155.546875 L 173.929688 149.4375 L 184.296875 149.4375 Z M 187.5 139.554688 " clip-rule="nonzero"/></clipPath></defs><rect x="-37.5" width="450" fill="#ffffff" y="-37.499999" height="449.999989" fill-opacity="1"/><rect x="-37.5" width="450" fill="#ffffff" y="-37.499999" height="449.999989" fill-opacity="1"/><g clip-path="url(#c403e896cf)"><g clip-path="url(#1699f2731f)"><path fill="#ffffff" d="M 84.417969 84.417969 L 290.582031 84.417969 L 290.582031 290.582031 L 84.417969 290.582031 Z M 84.417969 84.417969 " fill-opacity="1" fill-rule="nonzero"/></g></g><g clip-path="url(#206a5f6f35)"><g clip-path="url(#043963ba4b)"><path stroke-linecap="butt" transform="matrix(0.75, 0, 0, 0.75, 84.419046, 84.419042)" fill="none" stroke-linejoin="miter" d="M 137.436072 -0.00143054 C 61.535026 -0.00143054 -0.00143654 61.535032 -0.00143654 137.436078 C -0.00143654 213.342333 61.535026 274.873588 137.436072 274.873588 C 213.342327 274.873588 274.873582 213.342333 274.873582 137.436078 C 274.873582 61.535032 213.342327 -0.00143054 137.436072 -0.00143054 Z M 137.436072 -0.00143054 " stroke="#004aad" stroke-width="8" stroke-opacity="1" stroke-miterlimit="4"/></g></g><g clip-path="url(#ce6114c837)"><g clip-path="url(#38d053eeb3)"><path stroke-linecap="butt" transform="matrix(0.75, 0, 0, 0.75, 106.357162, 106.357157)" fill="none" stroke-linejoin="miter" d="M 108.18525 -0.00225102 C 48.435246 -0.00225102 -0.00225702 48.435252 -0.00225702 108.185256 C -0.00225702 167.93526 48.435246 216.372763 108.18525 216.372763 C 167.935254 216.372763 216.372757 167.93526 216.372757 108.185256 C 216.372757 48.435252 167.935254 -0.00225102 108.18525 -0.00225102 Z M 108.18525 -0.00225102 " stroke="#049a24" stroke-width="8" stroke-opacity="1" stroke-miterlimit="4"/></g></g><g clip-path="url(#e24f5cd7c6)"><g clip-path="url(#79bed6d71c)"><path stroke-linecap="butt" transform="matrix(0.75, 0, 0, 0.75, 129.92336, 129.923355)" fill="none" stroke-linejoin="miter" d="M 76.76365 -0.00197396 C 34.367814 -0.00197396 -0.00197996 34.36782 -0.00197996 76.763656 C -0.00197996 119.164701 34.367814 153.529286 76.76365 153.529286 C 119.164695 153.529286 153.52928 119.164701 153.52928 76.763656 C 153.52928 34.36782 119.164695 -0.00197396 76.76365 -0.00197396 Z M 76.76365 -0.00197396 " stroke="#049a24" stroke-width="8" stroke-opacity="1" stroke-miterlimit="4"/></g></g><path fill="#004aad" d="M 223.179688 191.664062 C 231.34375 181.9375 231.949219 170.34375 225.367188 164.820312 C 218.785156 159.296875 207.472656 161.90625 199.308594 171.632812 C 194.957031 176.820312 192.558594 182.765625 192.265625 188.027344 L 192.078125 188.003906 C 192.070312 188.089844 191.175781 196.726562 189.976562 200.378906 C 189.039062 203.230469 187.324219 206.34375 186.613281 207.582031 L 186.191406 207.230469 L 171.417969 224.835938 L 169.992188 225.089844 L 168.730469 226.59375 L 174.488281 231.421875 L 175.847656 229.800781 L 175.703125 228.175781 L 190.351562 210.71875 L 190.007812 210.433594 C 191.105469 209.515625 193.878906 207.289062 196.519531 205.871094 C 199.90625 204.054688 208.257812 201.671875 208.34375 201.652344 L 208.28125 201.441406 C 213.402344 200.234375 218.835938 196.84375 223.179688 191.664062 Z M 200.9375 173 C 201.207031 172.679688 201.484375 172.386719 201.757812 172.085938 L 202.855469 173.003906 L 200.503906 175.808594 L 199.453125 174.925781 C 199.917969 174.273438 200.410156 173.632812 200.9375 173 Z M 201.167969 176.367188 L 203.519531 173.5625 L 206.324219 175.914062 L 203.972656 178.71875 Z M 203.410156 179.382812 L 201.058594 182.1875 L 198.253906 179.839844 L 200.609375 177.035156 Z M 204.078125 172.898438 L 206.433594 170.09375 L 209.234375 172.445312 L 206.882812 175.25 Z M 206.992188 169.425781 L 209.34375 166.621094 L 212.148438 168.972656 L 209.792969 171.777344 Z M 209.902344 165.957031 L 210.070312 165.757812 C 211.359375 165.15625 212.640625 164.730469 213.902344 164.449219 L 215.097656 165.457031 L 212.707031 168.308594 Z M 205.765625 169.535156 L 203.414062 172.335938 L 202.339844 171.4375 C 203.21875 170.515625 204.132812 169.691406 205.058594 168.941406 Z M 205.761719 168.394531 C 206.5 167.832031 207.246094 167.328125 207.996094 166.878906 L 206.324219 168.867188 Z M 199.941406 176.472656 L 197.589844 179.277344 L 197.0625 178.835938 C 197.613281 177.761719 198.246094 176.699219 198.957031 175.648438 Z M 197.03125 179.945312 L 195.988281 181.1875 C 196.195312 180.671875 196.417969 180.152344 196.660156 179.636719 Z M 197.695312 180.503906 L 200.5 182.855469 L 198.144531 185.660156 L 195.34375 183.308594 Z M 216.175781 178.269531 L 213.824219 181.074219 L 211.019531 178.71875 L 213.371094 175.917969 Z M 213.929688 175.25 L 216.285156 172.445312 L 219.089844 174.800781 L 216.738281 177.605469 Z M 213.265625 181.738281 L 210.914062 184.542969 L 208.109375 182.1875 L 210.460938 179.386719 Z M 210.355469 185.210938 L 208 188.015625 L 205.195312 185.660156 L 207.546875 182.855469 Z M 207.441406 188.679688 L 205.089844 191.484375 L 202.28125 189.132812 L 204.636719 186.328125 Z M 204.53125 192.152344 L 202.210938 194.914062 L 199.40625 192.558594 L 201.726562 189.796875 Z M 219.648438 174.132812 L 216.84375 171.777344 L 219.238281 168.925781 L 222.042969 171.28125 Z M 215.617188 171.886719 L 213.265625 174.691406 L 210.460938 172.339844 L 212.8125 169.535156 Z M 213.375 168.867188 L 215.765625 166.015625 L 218.570312 168.367188 L 216.175781 171.21875 Z M 212.703125 175.355469 L 210.351562 178.160156 L 207.550781 175.808594 L 209.902344 173.003906 Z M 209.792969 178.824219 L 207.441406 181.628906 L 204.640625 179.277344 L 206.992188 176.476562 Z M 206.882812 182.296875 L 204.527344 185.101562 L 201.726562 182.75 L 204.078125 179.945312 Z M 203.96875 185.765625 L 201.613281 188.570312 L 198.8125 186.222656 L 201.167969 183.417969 Z M 201.058594 189.238281 L 198.738281 192 L 195.9375 189.648438 L 198.253906 186.886719 Z M 216.328125 165.347656 L 217.390625 164.082031 C 218.835938 164.117188 220.207031 164.394531 221.460938 164.921875 L 219.128906 167.699219 Z M 198.179688 192.667969 L 195.894531 195.390625 C 195.1875 194.207031 194.722656 192.851562 194.492188 191.367188 L 195.375 190.316406 Z M 198.84375 193.226562 L 201.652344 195.582031 L 199.144531 198.570312 C 198.675781 198.308594 198.222656 198.015625 197.808594 197.664062 C 197.269531 197.214844 196.816406 196.691406 196.40625 196.136719 Z M 205.753906 192.046875 L 208.105469 189.238281 L 210.910156 191.59375 L 208.558594 194.398438 Z M 208 195.0625 L 205.679688 197.828125 L 202.875 195.472656 L 205.195312 192.710938 Z M 208.664062 188.574219 L 211.019531 185.769531 L 213.824219 188.121094 L 211.46875 190.925781 Z M 211.578125 185.101562 L 213.929688 182.300781 L 216.734375 184.652344 L 214.382812 187.457031 Z M 214.488281 181.632812 L 216.84375 178.828125 L 219.648438 181.183594 L 217.292969 183.988281 Z M 217.402344 178.164062 L 219.753906 175.359375 L 222.558594 177.710938 L 220.207031 180.515625 Z M 220.3125 174.691406 L 222.707031 171.839844 L 225.511719 174.195312 L 223.121094 177.046875 Z M 205.121094 198.492188 L 204 199.828125 C 202.542969 199.792969 201.175781 199.515625 199.941406 198.972656 L 202.316406 196.140625 Z M 223.265625 171.171875 L 225.683594 168.296875 C 226.457031 169.386719 227.011719 170.636719 227.351562 172 L 226.070312 173.527344 Z M 227.316406 179.089844 L 226.589844 179.957031 L 223.785156 177.605469 L 226.179688 174.753906 L 227.71875 176.046875 C 227.675781 177.03125 227.542969 178.046875 227.316406 179.089844 Z M 225.25 184.746094 L 224.34375 183.988281 L 226.695312 181.183594 L 226.734375 181.214844 C 226.351562 182.382812 225.855469 183.5625 225.25 184.746094 Z M 221.550781 190.296875 C 221.019531 190.925781 220.472656 191.519531 219.914062 192.09375 L 218.519531 190.925781 L 220.875 188.125 L 222.308594 189.328125 C 222.058594 189.652344 221.816406 189.976562 221.550781 190.296875 Z M 223.117188 184.09375 L 220.765625 186.898438 L 217.960938 184.546875 L 220.3125 181.742188 Z M 220.875 181.074219 L 223.226562 178.269531 L 226.027344 180.621094 L 223.675781 183.425781 Z M 220.207031 187.5625 L 217.851562 190.367188 L 215.050781 188.015625 L 217.402344 185.210938 Z M 217.292969 191.035156 L 214.941406 193.839844 L 212.136719 191.488281 L 214.492188 188.683594 Z M 214.382812 194.503906 L 212.027344 197.308594 L 209.226562 194.957031 L 211.578125 192.152344 Z M 215.609375 194.398438 L 217.960938 191.59375 L 219.289062 192.707031 C 218.375 193.589844 217.4375 194.398438 216.476562 195.125 Z M 215.757812 195.660156 C 214.917969 196.257812 214.066406 196.785156 213.207031 197.257812 L 215.050781 195.066406 Z M 221.433594 187.457031 L 223.785156 184.652344 L 224.832031 185.535156 C 224.253906 186.578125 223.597656 187.617188 222.847656 188.644531 Z M 208.667969 195.621094 L 211.46875 197.972656 L 211.257812 198.226562 C 210.035156 198.765625 208.8125 199.179688 207.617188 199.449219 L 206.347656 198.386719 Z M 227.738281 174.921875 L 226.738281 174.085938 L 227.566406 173.097656 C 227.660156 173.691406 227.71875 174.296875 227.738281 174.921875 Z M 225.132812 167.59375 L 222.601562 170.613281 L 219.796875 168.261719 L 222.269531 165.3125 C 222.875 165.636719 223.460938 166 223.996094 166.449219 C 224.414062 166.800781 224.785156 167.191406 225.132812 167.59375 Z M 216.238281 164.097656 L 215.660156 164.789062 L 215.003906 164.238281 C 215.417969 164.175781 215.832031 164.125 216.238281 164.097656 Z M 195.007812 184.160156 L 197.589844 186.324219 L 195.269531 189.089844 L 194.34375 188.3125 C 194.40625 186.976562 194.636719 185.582031 195.007812 184.160156 Z M 194.339844 189.445312 L 194.707031 189.757812 L 194.355469 190.175781 C 194.339844 189.9375 194.34375 189.6875 194.339844 189.445312 Z M 195.515625 203.996094 C 192.398438 205.667969 189.234375 208.285156 188.351562 209.042969 L 188.273438 208.976562 C 188.859375 207.972656 190.890625 204.40625 191.996094 201.042969 C 192.507812 199.492188 192.953125 197.183594 193.3125 194.949219 C 194.003906 196.644531 195.042969 198.125 196.4375 199.292969 C 197.847656 200.476562 199.503906 201.242188 201.316406 201.632812 C 199.171875 202.375 196.960938 203.21875 195.515625 203.996094 Z M 205.164062 199.796875 L 205.789062 199.054688 L 206.503906 199.652344 C 206.050781 199.722656 205.605469 199.769531 205.164062 199.796875 Z M 205.164062 199.796875 " fill-opacity="1" fill-rule="nonzero"/><path fill="#004aad" d="M 175.707031 172.316406 C 167.546875 162.585938 156.234375 159.976562 149.652344 165.5 C 143.070312 171.023438 143.675781 182.617188 151.839844 192.347656 C 156.1875 197.53125 161.628906 200.925781 166.757812 202.128906 L 166.703125 202.308594 C 166.789062 202.332031 175.136719 204.714844 178.523438 206.527344 C 181.171875 207.945312 183.941406 210.171875 185.035156 211.089844 L 184.613281 211.445312 L 199.386719 229.050781 L 199.390625 230.5 L 200.652344 232 L 206.410156 227.171875 L 205.046875 225.550781 L 203.421875 225.410156 L 188.773438 207.953125 L 188.433594 208.242188 C 187.71875 207.003906 186.007812 203.886719 185.070312 201.035156 C 183.871094 197.386719 182.972656 188.75 182.96875 188.660156 L 182.75 188.683594 C 182.453125 183.429688 180.054688 177.492188 175.707031 172.316406 Z M 153.46875 190.980469 C 153.199219 190.660156 152.957031 190.332031 152.707031 190.011719 L 153.800781 189.089844 L 156.15625 191.894531 L 155.105469 192.777344 C 154.542969 192.203125 153.996094 191.609375 153.46875 190.980469 Z M 156.820312 191.335938 L 154.46875 188.53125 L 157.269531 186.179688 L 159.625 188.984375 Z M 160.183594 189.652344 L 162.535156 192.457031 L 159.734375 194.808594 L 157.382812 192.003906 Z M 153.910156 187.867188 L 151.558594 185.0625 L 154.359375 182.710938 L 156.710938 185.515625 Z M 150.996094 184.394531 L 148.644531 181.59375 L 151.449219 179.242188 L 153.800781 182.042969 Z M 148.085938 180.925781 L 147.917969 180.726562 C 147.550781 179.355469 147.355469 178.015625 147.296875 176.726562 L 148.496094 175.722656 L 150.886719 178.574219 Z M 150.890625 185.621094 L 153.242188 188.425781 L 152.171875 189.324219 C 151.417969 188.300781 150.761719 187.257812 150.183594 186.214844 Z M 149.765625 185.429688 C 149.34375 184.605469 148.976562 183.78125 148.660156 182.964844 L 150.332031 184.953125 Z M 156.714844 192.5625 L 159.066406 195.367188 L 158.542969 195.808594 C 157.578125 195.078125 156.640625 194.273438 155.730469 193.386719 Z M 159.628906 196.03125 L 160.667969 197.273438 C 160.195312 196.980469 159.726562 196.671875 159.257812 196.34375 Z M 160.292969 195.472656 L 163.097656 193.121094 L 165.449219 195.925781 L 162.648438 198.277344 Z M 161.304688 176.886719 L 163.65625 179.6875 L 160.847656 182.042969 L 158.496094 179.238281 Z M 157.9375 178.574219 L 155.585938 175.769531 L 158.390625 173.414062 L 160.742188 176.21875 Z M 164.214844 180.355469 L 166.566406 183.160156 L 163.761719 185.511719 L 161.410156 182.710938 Z M 167.125 183.824219 L 169.480469 186.628906 L 166.671875 188.984375 L 164.320312 186.179688 Z M 170.039062 187.296875 L 172.390625 190.101562 L 169.585938 192.457031 L 167.234375 189.652344 Z M 172.949219 190.765625 L 175.269531 193.53125 L 172.464844 195.882812 L 170.144531 193.121094 Z M 157.832031 172.746094 L 155.023438 175.101562 L 152.632812 172.25 L 155.4375 169.894531 Z M 154.917969 176.328125 L 157.269531 179.132812 L 154.46875 181.484375 L 152.117188 178.679688 Z M 151.554688 178.011719 L 149.164062 175.160156 L 151.964844 172.808594 L 154.359375 175.660156 Z M 157.832031 179.800781 L 160.183594 182.601562 L 157.378906 184.953125 L 155.027344 182.152344 Z M 160.742188 183.269531 L 163.09375 186.074219 L 160.292969 188.421875 L 157.9375 185.621094 Z M 163.652344 186.738281 L 166.007812 189.542969 L 163.203125 191.894531 L 160.851562 189.089844 Z M 166.566406 190.210938 L 168.917969 193.015625 L 166.117188 195.367188 L 163.761719 192.5625 Z M 169.476562 193.679688 L 171.796875 196.445312 L 168.992188 198.796875 L 166.675781 196.03125 Z M 148.605469 174.496094 L 147.539062 173.226562 C 147.824219 171.808594 148.335938 170.507812 149.074219 169.363281 L 151.40625 172.144531 Z M 172.355469 197.109375 L 174.640625 199.832031 C 173.355469 200.324219 171.9375 200.546875 170.433594 200.515625 L 169.554688 199.460938 Z M 173.023438 196.550781 L 175.828125 194.195312 L 178.335938 197.1875 C 177.996094 197.601562 177.628906 197.996094 177.210938 198.34375 C 176.675781 198.796875 176.082031 199.148438 175.464844 199.457031 Z M 173.058594 189.542969 L 170.703125 186.738281 L 173.507812 184.386719 L 175.863281 187.191406 Z M 176.421875 187.855469 L 178.738281 190.617188 L 175.933594 192.972656 L 173.617188 190.207031 Z M 170.144531 186.070312 L 167.792969 183.265625 L 170.597656 180.914062 L 172.949219 183.71875 Z M 167.230469 182.601562 L 164.878906 179.796875 L 167.683594 177.445312 L 170.035156 180.246094 Z M 164.320312 179.132812 L 161.96875 176.328125 L 164.773438 173.972656 L 167.125 176.777344 Z M 161.410156 175.660156 L 159.054688 172.855469 L 161.859375 170.503906 L 164.214844 173.308594 Z M 158.496094 172.191406 L 156.105469 169.339844 L 158.910156 166.984375 L 161.300781 169.835938 Z M 179.300781 191.285156 L 180.417969 192.621094 C 180.132812 194.046875 179.621094 195.347656 178.871094 196.46875 L 176.496094 193.640625 Z M 155.542969 168.671875 L 153.128906 165.792969 C 154.339844 165.21875 155.664062 164.886719 157.070312 164.792969 L 158.347656 166.316406 Z M 164.042969 166.058594 L 164.769531 166.925781 L 161.96875 169.277344 L 159.574219 166.425781 L 161.117188 165.132812 C 162.082031 165.347656 163.058594 165.65625 164.042969 166.058594 Z M 169.253906 169.074219 L 168.351562 169.835938 L 165.996094 167.03125 L 166.035156 167 C 167.117188 167.582031 168.195312 168.273438 169.253906 169.074219 Z M 174.078125 173.683594 C 174.609375 174.3125 175.097656 174.957031 175.566406 175.609375 L 174.171875 176.773438 L 171.820312 173.972656 L 173.257812 172.765625 C 173.53125 173.070312 173.808594 173.363281 174.078125 173.683594 Z M 168.242188 171.0625 L 170.59375 173.867188 L 167.792969 176.21875 L 165.441406 173.414062 Z M 164.878906 172.746094 L 162.527344 169.945312 L 165.328125 167.59375 L 167.683594 170.394531 Z M 171.152344 174.53125 L 173.503906 177.335938 L 170.703125 179.6875 L 168.351562 176.882812 Z M 174.066406 178.003906 L 176.417969 180.808594 L 173.617188 183.160156 L 171.261719 180.355469 Z M 176.976562 181.472656 L 179.332031 184.277344 L 176.527344 186.628906 L 174.175781 183.824219 Z M 177.085938 180.246094 L 174.734375 177.441406 L 176.058594 176.328125 C 176.769531 177.378906 177.402344 178.445312 177.953125 179.519531 Z M 178.355469 180.316406 C 178.796875 181.25 179.167969 182.179688 179.484375 183.105469 L 177.644531 180.914062 Z M 171.261719 173.304688 L 168.910156 170.503906 L 169.960938 169.621094 C 170.886719 170.375 171.796875 171.199219 172.675781 172.117188 Z M 177.085938 187.292969 L 179.890625 184.941406 L 180.101562 185.195312 C 180.417969 186.496094 180.617188 187.769531 180.675781 188.992188 L 179.40625 190.058594 Z M 160.015625 164.921875 L 159.015625 165.757812 L 158.1875 164.769531 C 158.785156 164.78125 159.394531 164.828125 160.015625 164.921875 Z M 152.34375 166.210938 L 154.878906 169.230469 L 152.074219 171.582031 L 149.601562 168.636719 C 150.023438 168.09375 150.484375 167.582031 151.019531 167.132812 C 151.4375 166.78125 151.886719 166.484375 152.34375 166.210938 Z M 147.355469 174.363281 L 147.9375 175.054688 L 147.28125 175.605469 C 147.292969 175.1875 147.3125 174.769531 147.355469 174.363281 Z M 163.425781 198.757812 L 166.007812 196.589844 L 168.328125 199.355469 L 167.402344 200.132812 C 166.097656 199.839844 164.761719 199.371094 163.425781 198.757812 Z M 168.515625 200.332031 L 168.886719 200.023438 L 169.238281 200.441406 C 169 200.417969 168.757812 200.371094 168.515625 200.332031 Z M 183.050781 201.699219 C 184.15625 205.0625 186.183594 208.628906 186.773438 209.632812 L 186.695312 209.699219 C 185.808594 208.945312 182.648438 206.324219 179.53125 204.652344 C 178.089844 203.878906 175.894531 203.042969 173.757812 202.300781 C 175.546875 201.910156 177.1875 201.144531 178.578125 199.976562 C 179.988281 198.792969 181.03125 197.296875 181.730469 195.578125 C 182.085938 197.820312 182.535156 200.140625 183.050781 201.699219 Z M 180.589844 191.46875 L 179.964844 190.726562 L 180.679688 190.125 C 180.667969 190.582031 180.640625 191.03125 180.589844 191.46875 Z M 180.589844 191.46875 " fill-opacity="1" fill-rule="nonzero"/><g clip-path="url(#9ad8095081)"><g clip-path="url(#7dd8970da9)"><path fill="#ffffff" d="M 91.5625 170.957031 L 124.648438 170.957031 L 124.648438 204.042969 L 91.5625 204.042969 Z M 91.5625 170.957031 " fill-opacity="1" fill-rule="nonzero"/></g></g><g clip-path="url(#37362b2de0)"><g clip-path="url(#0cb08a6bad)"><path fill="#ffffff" d="M 248.882812 170.957031 L 281.96875 170.957031 L 281.96875 204.042969 L 248.882812 204.042969 Z M 248.882812 170.957031 " fill-opacity="1" fill-rule="nonzero"/></g></g><g clip-path="url(#abffa5d2c7)"><path fill="#049a24" d="M 97.503906 187.496094 C 97.503906 193.351562 102.25 198.097656 108.101562 198.097656 C 113.957031 198.097656 118.703125 193.351562 118.703125 187.496094 C 118.703125 181.644531 113.957031 176.898438 108.101562 176.898438 C 102.25 176.898438 97.503906 181.644531 97.503906 187.496094 Z M 108.101562 200.453125 C 100.949219 200.453125 95.148438 194.652344 95.148438 187.496094 C 95.148438 180.34375 100.949219 174.542969 108.101562 174.542969 C 115.257812 174.542969 121.058594 180.34375 121.058594 187.496094 C 121.058594 194.652344 115.257812 200.453125 108.101562 200.453125 Z M 108.101562 200.453125 " fill-opacity="1" fill-rule="evenodd"/></g><path fill="#049a24" d="M 99.039062 196.535156 C 98.5625 196.09375 98.535156 195.347656 98.980469 194.871094 C 103.859375 189.640625 112.058594 189.351562 117.289062 194.230469 C 117.765625 194.675781 117.792969 195.421875 117.347656 195.898438 C 116.90625 196.371094 116.160156 196.398438 115.683594 195.953125 C 111.402344 191.960938 104.695312 192.195312 100.703125 196.476562 C 100.257812 196.953125 99.515625 196.980469 99.039062 196.535156 Z M 99.039062 196.535156 " fill-opacity="1" fill-rule="evenodd"/><path fill="#049a24" d="M 98.457031 178.753906 C 98.898438 178.277344 99.644531 178.25 100.121094 178.695312 C 104.402344 182.6875 111.109375 182.453125 115.101562 178.171875 C 115.546875 177.695312 116.289062 177.667969 116.765625 178.113281 C 117.242188 178.558594 117.269531 179.300781 116.824219 179.777344 C 111.945312 185.011719 103.746094 185.296875 98.515625 180.417969 C 98.039062 179.972656 98.011719 179.226562 98.457031 178.753906 Z M 98.457031 178.753906 " fill-opacity="1" fill-rule="evenodd"/><g clip-path="url(#1b36cde65a)"><path fill="#049a24" d="M 254.824219 187.496094 C 254.824219 193.351562 259.566406 198.097656 265.421875 198.097656 C 271.277344 198.097656 276.023438 193.351562 276.023438 187.496094 C 276.023438 181.644531 271.277344 176.898438 265.421875 176.898438 C 259.566406 176.898438 254.824219 181.644531 254.824219 187.496094 Z M 265.421875 200.453125 C 258.265625 200.453125 252.46875 194.652344 252.46875 187.496094 C 252.46875 180.34375 258.265625 174.542969 265.421875 174.542969 C 272.578125 174.542969 278.378906 180.34375 278.378906 187.496094 C 278.378906 194.652344 272.578125 200.453125 265.421875 200.453125 Z M 265.421875 200.453125 " fill-opacity="1" fill-rule="evenodd"/></g><path fill="#049a24" d="M 256.359375 196.535156 C 255.882812 196.09375 255.855469 195.347656 256.300781 194.871094 C 261.179688 189.640625 269.378906 189.351562 274.609375 194.230469 C 275.085938 194.675781 275.113281 195.421875 274.667969 195.898438 C 274.222656 196.371094 273.480469 196.398438 273.003906 195.953125 C 268.722656 191.960938 262.015625 192.195312 258.023438 196.476562 C 257.578125 196.953125 256.832031 196.980469 256.359375 196.535156 Z M 256.359375 196.535156 " fill-opacity="1" fill-rule="evenodd"/><path fill="#049a24" d="M 255.777344 178.753906 C 256.21875 178.277344 256.964844 178.25 257.441406 178.695312 C 261.722656 182.6875 268.429688 182.453125 272.421875 178.171875 C 272.863281 177.695312 273.609375 177.667969 274.085938 178.113281 C 274.5625 178.558594 274.585938 179.300781 274.144531 179.777344 C 269.265625 185.011719 261.066406 185.296875 255.832031 180.417969 C 255.359375 179.972656 255.332031 179.226562 255.777344 178.753906 Z M 255.777344 178.753906 " fill-opacity="1" fill-rule="evenodd"/><g clip-path="url(#0dc3573f48)"><g clip-path="url(#364454a43e)"><path fill="#049a24" d="M 173.929688 139.554688 L 201.113281 139.554688 L 201.113281 165.429688 L 173.929688 165.429688 Z M 173.929688 139.554688 " fill-opacity="1" fill-rule="nonzero"/></g></g><path fill="#ffffff" d="M 252.855469 252.90625 C 251.886719 254.132812 250.886719 255.328125 249.851562 256.5 C 248.820312 257.667969 247.753906 258.808594 246.65625 259.917969 C 245.558594 261.023438 244.429688 262.101562 243.269531 263.148438 C 242.109375 264.195312 240.921875 265.207031 239.707031 266.1875 C 238.492188 267.164062 237.25 268.109375 235.980469 269.019531 C 234.710938 269.925781 233.417969 270.800781 232.101562 271.636719 C 230.78125 272.472656 229.441406 273.273438 228.078125 274.03125 C 226.714844 274.792969 225.332031 275.515625 223.929688 276.199219 C 222.527344 276.882812 221.105469 277.523438 219.664062 278.128906 C 218.226562 278.730469 216.769531 279.292969 215.296875 279.816406 C 213.828125 280.335938 212.34375 280.816406 210.84375 281.253906 C 209.347656 281.691406 207.835938 282.085938 206.316406 282.441406 C 204.796875 282.792969 203.265625 283.101562 201.726562 283.371094 C 200.191406 283.636719 198.644531 283.859375 197.09375 284.039062 C 195.542969 284.21875 193.992188 284.355469 192.433594 284.449219 C 190.875 284.542969 189.3125 284.589844 187.753906 284.59375 C 186.191406 284.601562 184.632812 284.5625 183.074219 284.476562 C 181.515625 284.394531 179.960938 284.269531 178.410156 284.097656 C 176.855469 283.925781 175.3125 283.714844 173.773438 283.457031 C 172.230469 283.199219 170.699219 282.898438 169.179688 282.554688 C 167.65625 282.210938 166.144531 281.824219 164.644531 281.398438 C 163.140625 280.96875 161.652344 280.5 160.179688 279.984375 C 158.703125 279.472656 157.246094 278.921875 155.800781 278.328125 C 154.359375 277.730469 152.933594 277.097656 151.527344 276.421875 C 150.117188 275.75 148.730469 275.035156 147.363281 274.28125 C 145.996094 273.53125 144.648438 272.738281 143.328125 271.910156 C 142.003906 271.082031 140.707031 270.21875 139.429688 269.316406 C 138.15625 268.417969 136.90625 267.480469 135.6875 266.507812 C 134.464844 265.535156 133.269531 264.53125 132.105469 263.492188 C 130.941406 262.453125 129.804688 261.382812 128.699219 260.28125 C 127.59375 259.179688 126.523438 258.046875 125.480469 256.882812 C 124.441406 255.722656 123.433594 254.53125 122.457031 253.308594 L 140.636719 238.789062 C 141.335938 239.667969 142.0625 240.523438 142.8125 241.363281 C 143.5625 242.199219 144.335938 243.015625 145.132812 243.8125 C 145.929688 244.605469 146.746094 245.375 147.585938 246.125 C 148.425781 246.871094 149.285156 247.597656 150.167969 248.296875 C 151.046875 248.996094 151.945312 249.671875 152.863281 250.320312 C 153.78125 250.96875 154.71875 251.59375 155.671875 252.191406 C 156.625 252.785156 157.59375 253.355469 158.578125 253.898438 C 159.566406 254.441406 160.566406 254.953125 161.578125 255.441406 C 162.59375 255.925781 163.621094 256.382812 164.660156 256.8125 C 165.699219 257.238281 166.75 257.640625 167.8125 258.007812 C 168.875 258.375 169.949219 258.714844 171.03125 259.023438 C 172.113281 259.332031 173.199219 259.613281 174.296875 259.859375 C 175.394531 260.105469 176.5 260.324219 177.605469 260.507812 C 178.714844 260.695312 179.832031 260.847656 180.949219 260.96875 C 182.066406 261.09375 183.1875 261.183594 184.308594 261.246094 C 185.433594 261.304688 186.558594 261.332031 187.679688 261.328125 C 188.804688 261.324219 189.929688 261.289062 191.050781 261.222656 C 192.175781 261.15625 193.296875 261.058594 194.414062 260.929688 C 195.53125 260.800781 196.640625 260.636719 197.75 260.445312 C 198.859375 260.253906 199.960938 260.03125 201.054688 259.777344 C 202.152344 259.523438 203.238281 259.238281 204.316406 258.921875 C 205.398438 258.605469 206.46875 258.261719 207.527344 257.886719 C 208.585938 257.507812 209.636719 257.105469 210.671875 256.667969 C 211.710938 256.234375 212.734375 255.769531 213.746094 255.277344 C 214.757812 254.785156 215.753906 254.265625 216.738281 253.71875 C 217.71875 253.171875 218.683594 252.59375 219.632812 251.992188 C 220.582031 251.390625 221.515625 250.761719 222.429688 250.105469 C 223.34375 249.449219 224.238281 248.769531 225.113281 248.066406 C 225.992188 247.359375 226.847656 246.628906 227.679688 245.875 C 228.515625 245.121094 229.328125 244.347656 230.121094 243.546875 C 230.910156 242.746094 231.679688 241.925781 232.425781 241.085938 C 233.167969 240.242188 233.890625 239.378906 234.585938 238.496094 Z M 252.855469 252.90625 " fill-opacity="1" fill-rule="nonzero"/><g fill="#004aad" fill-opacity="1"><g transform="translate(133.058832, 252.635844)"><g><path d="M 13.9375 -3.296875 L 12.265625 -1.5625 L 9.21875 -4.46875 L 7.59375 -2.75 L 10.40625 -0.078125 L 8.734375 1.671875 L 5.921875 -1 L 2.609375 2.484375 L 0.640625 0.609375 L 8.921875 -8.078125 Z M 13.9375 -3.296875 "/></g></g></g><g fill="#004aad" fill-opacity="1"><g transform="translate(140.48381, 259.73297)"><g><path d="M 3.625 -4.796875 C 4.59375 -6.234375 5.90625 -7.117188 7.5625 -7.453125 C 9.226562 -7.785156 10.753906 -7.484375 12.140625 -6.546875 C 13.523438 -5.609375 14.367188 -4.3125 14.671875 -2.65625 C 14.972656 -1.007812 14.632812 0.53125 13.65625 1.96875 C 12.675781 3.425781 11.367188 4.328125 9.734375 4.671875 C 8.109375 5.023438 6.585938 4.722656 5.171875 3.765625 C 3.710938 2.773438 2.84375 1.472656 2.5625 -0.140625 C 2.28125 -1.765625 2.632812 -3.316406 3.625 -4.796875 Z M 6.078125 -3.140625 C 5.722656 -2.617188 5.484375 -2.085938 5.359375 -1.546875 C 5.234375 -1.003906 5.269531 -0.445312 5.46875 0.125 C 5.675781 0.695312 6.070312 1.179688 6.65625 1.578125 C 7.488281 2.140625 8.316406 2.273438 9.140625 1.984375 C 9.960938 1.691406 10.648438 1.132812 11.203125 0.3125 C 11.753906 -0.5 12.007812 -1.34375 11.96875 -2.21875 C 11.925781 -3.09375 11.492188 -3.8125 10.671875 -4.375 C 9.847656 -4.925781 9.015625 -5.0625 8.171875 -4.78125 C 7.328125 -4.5 6.628906 -3.953125 6.078125 -3.140625 Z M 6.078125 -3.140625 "/></g></g></g><g fill="#004aad" fill-opacity="1"><g transform="translate(152.917313, 267.77621)"><g><path d="M 5.609375 -10.65625 L 9.546875 -8.921875 C 10.597656 -8.460938 11.332031 -7.804688 11.75 -6.953125 C 12.164062 -6.097656 12.144531 -5.144531 11.6875 -4.09375 C 11.332031 -3.28125 10.832031 -2.6875 10.1875 -2.3125 C 9.550781 -1.945312 8.84375 -1.800781 8.0625 -1.875 L 9.84375 4.3125 L 6.65625 2.90625 L 5.21875 -2.90625 L 3.3125 1.453125 L 0.796875 0.34375 Z M 5.984375 -4.65625 L 6.265625 -4.53125 C 6.503906 -4.425781 6.703125 -4.34375 6.859375 -4.28125 C 7.023438 -4.226562 7.222656 -4.179688 7.453125 -4.140625 C 7.679688 -4.109375 7.878906 -4.113281 8.046875 -4.15625 C 8.210938 -4.207031 8.378906 -4.304688 8.546875 -4.453125 C 8.722656 -4.597656 8.867188 -4.800781 8.984375 -5.0625 C 9.109375 -5.332031 9.160156 -5.582031 9.140625 -5.8125 C 9.128906 -6.039062 9.082031 -6.226562 9 -6.375 C 8.925781 -6.53125 8.796875 -6.679688 8.609375 -6.828125 C 8.429688 -6.972656 8.265625 -7.078125 8.109375 -7.140625 C 7.960938 -7.210938 7.769531 -7.300781 7.53125 -7.40625 L 7.25 -7.53125 Z M 5.984375 -4.65625 "/></g></g></g><g fill="#004aad" fill-opacity="1"><g transform="translate(164.261114, 272.400527)"><g/></g></g><g fill="#004aad" fill-opacity="1"><g transform="translate(169.830735, 274.17139)"><g><path d="M 11.953125 -10.140625 L 10.671875 -2.515625 C 10.421875 -1.054688 9.835938 -0.0234375 8.921875 0.578125 C 8.015625 1.191406 6.804688 1.367188 5.296875 1.109375 C 3.785156 0.859375 2.703125 0.296875 2.046875 -0.578125 C 1.390625 -1.453125 1.1875 -2.617188 1.4375 -4.078125 L 2.71875 -11.703125 L 5.421875 -11.25 L 4.265625 -4.40625 C 4.109375 -3.457031 4.144531 -2.769531 4.375 -2.34375 C 4.601562 -1.914062 5.054688 -1.644531 5.734375 -1.53125 C 6.410156 -1.414062 6.929688 -1.519531 7.296875 -1.84375 C 7.671875 -2.164062 7.9375 -2.800781 8.09375 -3.75 L 9.25 -10.59375 Z M 11.953125 -10.140625 "/></g></g></g><g fill="#004aad" fill-opacity="1"><g transform="translate(182.591215, 276.271494)"><g><path d="M 10.796875 -0.25 L 10.046875 -7.359375 L 9.984375 -7.34375 L 7.6875 -0.265625 L 6.0625 -0.21875 L 3.4375 -7.203125 L 3.359375 -7.1875 L 2.96875 -0.078125 L 0.234375 0 L 1.03125 -12.03125 L 3.9375 -12.09375 L 6.75 -5.234375 L 9.265625 -12.234375 L 12.171875 -12.296875 L 13.53125 -0.328125 Z M 10.796875 -0.25 "/></g></g></g><g fill="#004aad" fill-opacity="1"><g transform="translate(198.385027, 275.517305)"><g><path d="M -1.609375 -11.921875 L 2.671875 -12.8125 C 3.859375 -13.0625 4.890625 -12.957031 5.765625 -12.5 C 6.640625 -12.050781 7.195312 -11.238281 7.4375 -10.0625 C 7.6875 -8.882812 7.503906 -7.878906 6.890625 -7.046875 C 6.285156 -6.222656 5.394531 -5.6875 4.21875 -5.4375 L 2.609375 -5.109375 L 3.53125 -0.75 L 0.859375 -0.1875 Z M 2.15625 -7.25 L 2.90625 -7.40625 C 3.507812 -7.53125 3.976562 -7.75 4.3125 -8.0625 C 4.644531 -8.382812 4.753906 -8.820312 4.640625 -9.375 C 4.515625 -9.9375 4.238281 -10.296875 3.8125 -10.453125 C 3.382812 -10.609375 2.867188 -10.625 2.265625 -10.5 L 1.515625 -10.34375 Z M 2.15625 -7.25 "/></g></g></g><g fill="#004aad" fill-opacity="1"><g transform="translate(209.600049, 272.88316)"><g><path d="M -0.4375 -12.515625 L 3.421875 -1.15625 L 0.828125 -0.28125 L -3.03125 -11.640625 Z M -0.4375 -12.515625 "/></g></g></g><g fill="#004aad" fill-opacity="1"><g transform="translate(215.638531, 270.907825)"><g><path d="M -4.453125 -11.171875 L -0.578125 -13.046875 C 0.453125 -13.546875 1.429688 -13.675781 2.359375 -13.4375 C 3.285156 -13.207031 4 -12.578125 4.5 -11.546875 C 4.882812 -10.742188 5.003906 -9.976562 4.859375 -9.25 C 4.710938 -8.53125 4.363281 -7.894531 3.8125 -7.34375 L 9.671875 -4.6875 L 6.53125 -3.171875 L 1.171875 -5.859375 L 3.25 -1.578125 L 0.78125 -0.375 Z M 0.34375 -7.578125 L 0.625 -7.703125 C 0.851562 -7.816406 1.039062 -7.914062 1.1875 -8 C 1.34375 -8.09375 1.507812 -8.210938 1.6875 -8.359375 C 1.863281 -8.503906 1.988281 -8.65625 2.0625 -8.8125 C 2.132812 -8.976562 2.171875 -9.171875 2.171875 -9.390625 C 2.171875 -9.617188 2.109375 -9.863281 1.984375 -10.125 C 1.859375 -10.382812 1.707031 -10.582031 1.53125 -10.71875 C 1.351562 -10.863281 1.179688 -10.953125 1.015625 -10.984375 C 0.847656 -11.015625 0.648438 -11.007812 0.421875 -10.96875 C 0.191406 -10.9375 0 -10.882812 -0.15625 -10.8125 C -0.320312 -10.738281 -0.519531 -10.644531 -0.75 -10.53125 L -1.03125 -10.40625 Z M 0.34375 -7.578125 "/></g></g></g><g fill="#004aad" fill-opacity="1"><g transform="translate(226.666347, 265.320507)"><g><path d="M -0.421875 -14.28125 L 0.9375 -12.296875 L -2.46875 -9.953125 L -1.125 -8 L 2.140625 -10.234375 L 3.5 -8.25 L 0.234375 -6.015625 L 1.609375 -4.03125 L 5.015625 -6.375 L 6.375 -4.390625 L 0.71875 -0.5 L -6.078125 -10.390625 Z M -0.421875 -14.28125 "/></g></g></g><g fill="#004aad" fill-opacity="1"><g transform="translate(235.161801, 259.358653)"><g><path d="M -4.453125 -12.546875 C -3.984375 -12.984375 -3.457031 -13.347656 -2.875 -13.640625 C -2.300781 -13.929688 -1.832031 -14.109375 -1.46875 -14.171875 L -0.953125 -14.25 L -0.296875 -11.90625 C -0.390625 -11.894531 -0.523438 -11.867188 -0.703125 -11.828125 C -0.878906 -11.785156 -1.175781 -11.675781 -1.59375 -11.5 C -2.019531 -11.320312 -2.363281 -11.109375 -2.625 -10.859375 C -2.957031 -10.546875 -3.148438 -10.234375 -3.203125 -9.921875 C -3.253906 -9.617188 -3.164062 -9.34375 -2.9375 -9.09375 C -2.820312 -8.976562 -2.671875 -8.90625 -2.484375 -8.875 C -2.304688 -8.851562 -2.054688 -8.878906 -1.734375 -8.953125 C -1.421875 -9.023438 -1.15625 -9.097656 -0.9375 -9.171875 C -0.71875 -9.253906 -0.378906 -9.375 0.078125 -9.53125 C 0.859375 -9.820312 1.644531 -9.945312 2.4375 -9.90625 C 3.226562 -9.875 3.867188 -9.59375 4.359375 -9.0625 C 4.828125 -8.5625 5.144531 -8.035156 5.3125 -7.484375 C 5.488281 -6.929688 5.515625 -6.40625 5.390625 -5.90625 C 5.273438 -5.40625 5.078125 -4.925781 4.796875 -4.46875 C 4.515625 -4.007812 4.148438 -3.566406 3.703125 -3.140625 C 3.316406 -2.785156 2.898438 -2.472656 2.453125 -2.203125 C 2.003906 -1.941406 1.601562 -1.753906 1.25 -1.640625 C 0.90625 -1.523438 0.578125 -1.429688 0.265625 -1.359375 C -0.0351562 -1.285156 -0.265625 -1.242188 -0.421875 -1.234375 L -0.703125 -1.21875 L -1.25 -3.84375 C -1.09375 -3.851562 -0.890625 -3.867188 -0.640625 -3.890625 C -0.398438 -3.910156 -0.00390625 -4.007812 0.546875 -4.1875 C 1.097656 -4.363281 1.519531 -4.582031 1.8125 -4.84375 C 2.65625 -5.632812 2.8125 -6.316406 2.28125 -6.890625 C 2.164062 -7.015625 2.03125 -7.097656 1.875 -7.140625 C 1.726562 -7.191406 1.53125 -7.195312 1.28125 -7.15625 C 1.03125 -7.113281 0.816406 -7.066406 0.640625 -7.015625 C 0.460938 -6.972656 0.1875 -6.890625 -0.1875 -6.765625 C -0.570312 -6.640625 -0.859375 -6.550781 -1.046875 -6.5 C -1.816406 -6.269531 -2.535156 -6.210938 -3.203125 -6.328125 C -3.867188 -6.453125 -4.410156 -6.738281 -4.828125 -7.1875 C -5.566406 -7.976562 -5.875 -8.894531 -5.75 -9.9375 C -5.632812 -10.976562 -5.203125 -11.847656 -4.453125 -12.546875 Z M -4.453125 -12.546875 "/></g></g></g><path fill="#ffffff" d="M 98.800781 168.925781 C 99.273438 166.355469 99.859375 163.8125 100.554688 161.292969 C 101.25 158.773438 102.050781 156.289062 102.964844 153.839844 C 103.875 151.390625 104.890625 148.988281 106.011719 146.628906 C 107.128906 144.265625 108.351562 141.960938 109.671875 139.703125 C 110.992188 137.449219 112.40625 135.257812 113.917969 133.125 C 115.429688 130.996094 117.03125 128.933594 118.71875 126.941406 C 120.410156 124.949219 122.183594 123.03125 124.039062 121.195312 C 125.894531 119.355469 127.828125 117.601562 129.839844 115.933594 C 131.847656 114.261719 133.925781 112.683594 136.070312 111.191406 C 138.21875 109.703125 140.425781 108.308594 142.691406 107.011719 C 144.960938 105.714844 147.28125 104.515625 149.652344 103.417969 C 152.023438 102.324219 154.4375 101.332031 156.894531 100.445312 C 159.351562 99.558594 161.84375 98.78125 164.371094 98.109375 C 166.894531 97.441406 169.445312 96.882812 172.019531 96.433594 C 174.59375 95.984375 177.179688 95.648438 179.785156 95.425781 C 182.386719 95.203125 184.996094 95.09375 187.609375 95.09375 C 190.21875 95.097656 192.828125 95.214844 195.429688 95.445312 C 198.03125 95.675781 200.621094 96.015625 203.195312 96.472656 C 205.765625 96.925781 208.316406 97.492188 210.839844 98.167969 C 213.363281 98.84375 215.851562 99.628906 218.308594 100.519531 C 220.761719 101.414062 223.175781 102.410156 225.542969 103.511719 C 227.914062 104.613281 230.230469 105.816406 232.492188 107.121094 C 234.757812 108.425781 236.960938 109.824219 239.105469 111.316406 C 241.246094 112.8125 243.320312 114.398438 245.324219 116.074219 C 247.332031 117.75 249.257812 119.507812 251.113281 121.351562 C 252.964844 123.191406 254.730469 125.113281 256.417969 127.109375 C 258.101562 129.105469 259.699219 131.171875 261.203125 133.304688 C 262.710938 135.441406 264.121094 137.636719 265.433594 139.894531 C 266.75 142.152344 267.964844 144.464844 269.078125 146.828125 C 270.191406 149.191406 271.203125 151.597656 272.109375 154.046875 C 273.011719 156.5 273.808594 158.984375 274.5 161.503906 C 275.1875 164.023438 275.765625 166.570312 276.234375 169.140625 L 250.175781 173.882812 C 249.84375 172.066406 249.4375 170.269531 248.949219 168.488281 C 248.460938 166.710938 247.898438 164.953125 247.261719 163.222656 C 246.621094 161.492188 245.90625 159.792969 245.121094 158.121094 C 244.335938 156.453125 243.476562 154.820312 242.546875 153.226562 C 241.617188 151.632812 240.621094 150.078125 239.558594 148.570312 C 238.496094 147.0625 237.367188 145.605469 236.179688 144.195312 C 234.988281 142.785156 233.738281 141.429688 232.429688 140.125 C 231.121094 138.824219 229.757812 137.582031 228.34375 136.398438 C 226.925781 135.214844 225.460938 134.097656 223.949219 133.042969 C 222.433594 131.984375 220.878906 130.996094 219.28125 130.078125 C 217.679688 129.15625 216.042969 128.304688 214.371094 127.527344 C 212.699219 126.75 210.992188 126.042969 209.257812 125.414062 C 207.523438 124.785156 205.765625 124.230469 203.984375 123.753906 C 202.203125 123.273438 200.402344 122.875 198.585938 122.554688 C 196.765625 122.234375 194.9375 121.992188 193.101562 121.828125 C 191.261719 121.667969 189.421875 121.585938 187.574219 121.582031 C 185.730469 121.578125 183.886719 121.65625 182.050781 121.816406 C 180.210938 121.972656 178.382812 122.210938 176.5625 122.527344 C 174.746094 122.84375 172.945312 123.238281 171.160156 123.710938 C 169.378906 124.183594 167.617188 124.734375 165.882812 125.359375 C 164.144531 125.988281 162.441406 126.6875 160.765625 127.460938 C 159.089844 128.238281 157.453125 129.082031 155.851562 130 C 154.25 130.914062 152.691406 131.898438 151.171875 132.953125 C 149.65625 134.003906 148.191406 135.121094 146.769531 136.300781 C 145.351562 137.480469 143.988281 138.71875 142.675781 140.015625 C 141.363281 141.316406 140.109375 142.667969 138.917969 144.074219 C 137.722656 145.484375 136.59375 146.9375 135.527344 148.445312 C 134.457031 149.949219 133.457031 151.5 132.527344 153.089844 C 131.59375 154.683594 130.730469 156.3125 129.941406 157.980469 C 129.148438 159.648438 128.433594 161.347656 127.789062 163.078125 C 127.144531 164.804688 126.578125 166.558594 126.085938 168.339844 C 125.597656 170.117188 125.183594 171.914062 124.847656 173.730469 Z M 98.800781 168.925781 " fill-opacity="1" fill-rule="nonzero"/><g fill="#004aad" fill-opacity="1"><g transform="translate(117.173714, 166.516718)"><g><path d="M 4.40625 -11.46875 L -3.375 -13.75 L -3.40625 -13.6875 L 3.0625 -8.203125 L 2.40625 -6.484375 L -6.078125 -6.734375 L -6.109375 -6.65625 L 1.21875 -3.15625 L 0.09375 -0.25 L -12.21875 -6.296875 L -11.03125 -9.390625 L -2.578125 -9.390625 L -8.84375 -15.046875 L -7.65625 -18.140625 L 5.53125 -14.359375 Z M 4.40625 -11.46875 "/></g></g></g><g fill="#004aad" fill-opacity="1"><g transform="translate(123.687256, 150.571774)"><g><path d="M -11.703125 -7.0625 L -9.640625 -10.203125 L -4.421875 -10.1875 L -6.515625 -14.953125 L -4.46875 -18.078125 L -0.9375 -9.75 L 4.1875 -6.390625 L 2.484375 -3.796875 L -2.640625 -7.15625 Z M -11.703125 -7.0625 "/></g></g></g><g fill="#004aad" fill-opacity="1"><g transform="translate(131.709275, 139.05661)"><g/></g></g><g fill="#004aad" fill-opacity="1"><g transform="translate(135.935502, 134.173579)"><g><path d="M -7.140625 -8.25 L -8.953125 -10.296875 L -1.765625 -16.671875 L 0.046875 -14.625 L -2.375 -12.46875 L 4.859375 -4.296875 L 2.53125 -2.234375 L -4.703125 -10.40625 Z M -7.140625 -8.25 "/></g></g></g><g fill="#004aad" fill-opacity="1"><g transform="translate(144.764154, 126.559527)"><g><path d="M 0.09375 -16.25 L 1.5625 -13.9375 L -2.390625 -11.421875 L -0.9375 -9.125 L 2.859375 -11.546875 L 4.328125 -9.25 L 0.53125 -6.828125 L 2 -4.515625 L 5.953125 -7.03125 L 7.421875 -4.71875 L 0.84375 -0.53125 L -6.484375 -12.0625 Z M 0.09375 -16.25 "/></g></g></g><g fill="#004aad" fill-opacity="1"><g transform="translate(154.296841, 120.467846)"><g><path d="M 0.640625 -9.390625 L 3.8125 -1.53125 L 0.921875 -0.375 L -4.1875 -13.046875 L -1.296875 -14.203125 L 6.90625 -8.359375 L 6.9375 -8.375 L 3.765625 -16.25 L 6.640625 -17.40625 L 11.75 -4.734375 L 8.875 -3.578125 L 0.671875 -9.40625 Z M 0.640625 -9.390625 "/></g></g></g><g fill="#004aad" fill-opacity="1"><g transform="translate(168.521747, 114.918707)"><g><path d="M 2.59375 -9.046875 L 4.046875 -0.703125 L 0.984375 -0.171875 L -1.375 -13.625 L 1.6875 -14.15625 L 8.5 -6.734375 L 8.53125 -6.734375 L 7.0625 -15.09375 L 10.125 -15.640625 L 12.484375 -2.1875 L 9.421875 -1.640625 L 2.625 -9.0625 Z M 2.59375 -9.046875 "/></g></g></g><g fill="#004aad" fill-opacity="1"><g transform="translate(183.82723, 112.715454)"><g><path d="M 3.84375 -13.734375 L 4.109375 -0.078125 L 1 -0.015625 L 0.734375 -13.671875 Z M 3.84375 -13.734375 "/></g></g></g><g fill="#004aad" fill-opacity="1"><g transform="translate(190.815819, 112.503977)"><g><path d="M 7.609375 -13.109375 C 8.347656 -13.015625 9.054688 -12.816406 9.734375 -12.515625 C 10.410156 -12.210938 10.910156 -11.9375 11.234375 -11.6875 L 11.671875 -11.3125 L 10.125 -8.984375 C 10.039062 -9.054688 9.914062 -9.15625 9.75 -9.28125 C 9.59375 -9.414062 9.28125 -9.597656 8.8125 -9.828125 C 8.34375 -10.054688 7.898438 -10.195312 7.484375 -10.25 C 6.972656 -10.3125 6.566406 -10.25 6.265625 -10.0625 C 5.960938 -9.875 5.785156 -9.597656 5.734375 -9.234375 C 5.710938 -9.046875 5.757812 -8.863281 5.875 -8.6875 C 6 -8.507812 6.203125 -8.3125 6.484375 -8.09375 C 6.773438 -7.875 7.035156 -7.691406 7.265625 -7.546875 C 7.503906 -7.410156 7.863281 -7.207031 8.34375 -6.9375 C 9.164062 -6.46875 9.847656 -5.875 10.390625 -5.15625 C 10.941406 -4.445312 11.164062 -3.6875 11.0625 -2.875 C 10.976562 -2.101562 10.757812 -1.4375 10.40625 -0.875 C 10.0625 -0.320312 9.625 0.0820312 9.09375 0.34375 C 8.570312 0.613281 8.003906 0.789062 7.390625 0.875 C 6.773438 0.96875 6.128906 0.976562 5.453125 0.90625 C 4.847656 0.832031 4.269531 0.703125 3.71875 0.515625 C 3.164062 0.328125 2.707031 0.117188 2.34375 -0.109375 C 1.976562 -0.335938 1.65625 -0.554688 1.375 -0.765625 C 1.09375 -0.972656 0.882812 -1.148438 0.75 -1.296875 L 0.5625 -1.5 L 2.40625 -3.90625 C 2.53125 -3.78125 2.695312 -3.617188 2.90625 -3.421875 C 3.113281 -3.222656 3.492188 -2.945312 4.046875 -2.59375 C 4.597656 -2.238281 5.101562 -2.035156 5.5625 -1.984375 C 6.863281 -1.828125 7.566406 -2.191406 7.671875 -3.078125 C 7.691406 -3.265625 7.664062 -3.441406 7.59375 -3.609375 C 7.519531 -3.785156 7.367188 -3.96875 7.140625 -4.15625 C 6.921875 -4.351562 6.726562 -4.507812 6.5625 -4.625 C 6.394531 -4.738281 6.117188 -4.910156 5.734375 -5.140625 C 5.347656 -5.378906 5.0625 -5.5625 4.875 -5.6875 C 4.101562 -6.1875 3.523438 -6.765625 3.140625 -7.421875 C 2.765625 -8.085938 2.617188 -8.773438 2.703125 -9.484375 C 2.847656 -10.691406 3.414062 -11.628906 4.40625 -12.296875 C 5.394531 -12.972656 6.460938 -13.242188 7.609375 -13.109375 Z M 7.609375 -13.109375 "/></g></g></g><g fill="#004aad" fill-opacity="1"><g transform="translate(203.685224, 114.380702)"><g/></g></g><g fill="#004aad" fill-opacity="1"><g transform="translate(209.885809, 115.48174)"><g><path d="M 10.40625 4.828125 L 11.640625 -3.046875 L 6.4375 2.984375 L 3.296875 1.53125 L 5.5 -12.5 L 8.640625 -11.046875 L 6.828125 -1.5625 L 6.90625 -1.53125 L 13.09375 -8.984375 L 15.21875 -8 L 13.53125 1.546875 L 13.609375 1.578125 L 19.671875 -5.9375 L 22.796875 -4.484375 L 13.53125 6.265625 Z M 10.40625 4.828125 "/></g></g></g><g fill="#004aad" fill-opacity="1"><g transform="translate(227.843535, 124.270567)"><g><path d="M 4.59375 -5.078125 C 5.84375 -6.609375 7.421875 -7.484375 9.328125 -7.703125 C 11.234375 -7.921875 12.921875 -7.429688 14.390625 -6.234375 C 15.878906 -5.035156 16.710938 -3.484375 16.890625 -1.578125 C 17.066406 0.316406 16.53125 2.035156 15.28125 3.578125 C 14.03125 5.128906 12.460938 6.019531 10.578125 6.25 C 8.703125 6.476562 7.003906 5.984375 5.484375 4.765625 C 3.929688 3.503906 3.078125 1.9375 2.921875 0.0625 C 2.773438 -1.800781 3.332031 -3.515625 4.59375 -5.078125 Z M 7.203125 -2.96875 C 6.753906 -2.414062 6.425781 -1.835938 6.21875 -1.234375 C 6.019531 -0.628906 6.007812 0 6.1875 0.65625 C 6.363281 1.320312 6.757812 1.910156 7.375 2.421875 C 8.28125 3.140625 9.207031 3.378906 10.15625 3.140625 C 11.113281 2.898438 11.945312 2.34375 12.65625 1.46875 C 13.351562 0.601562 13.722656 -0.328125 13.765625 -1.328125 C 13.804688 -2.328125 13.382812 -3.179688 12.5 -3.890625 C 11.625 -4.597656 10.695312 -4.835938 9.71875 -4.609375 C 8.738281 -4.378906 7.898438 -3.832031 7.203125 -2.96875 Z M 7.203125 -2.96875 "/></g></g></g><g fill="#004aad" fill-opacity="1"><g transform="translate(240.182431, 134.651798)"><g><path d="M 11.203125 -7.890625 L 14.28125 -4.109375 C 15.113281 -3.097656 15.519531 -2.050781 15.5 -0.96875 C 15.476562 0.113281 14.96875 1.070312 13.96875 1.90625 C 13.195312 2.539062 12.390625 2.875 11.546875 2.90625 C 10.703125 2.945312 9.898438 2.726562 9.140625 2.25 L 7.75 9.453125 L 5.25 6.40625 L 6.78125 -0.25 L 2.609375 3.171875 L 0.640625 0.765625 Z M 8.484375 -1.640625 L 8.703125 -1.359375 C 8.878906 -1.140625 9.035156 -0.953125 9.171875 -0.796875 C 9.304688 -0.648438 9.476562 -0.503906 9.6875 -0.359375 C 9.90625 -0.210938 10.109375 -0.113281 10.296875 -0.0625 C 10.492188 -0.0078125 10.71875 -0.015625 10.96875 -0.078125 C 11.21875 -0.148438 11.46875 -0.289062 11.71875 -0.5 C 11.976562 -0.707031 12.164062 -0.925781 12.28125 -1.15625 C 12.394531 -1.382812 12.445312 -1.597656 12.4375 -1.796875 C 12.425781 -2.003906 12.363281 -2.222656 12.25 -2.453125 C 12.144531 -2.691406 12.03125 -2.890625 11.90625 -3.046875 C 11.789062 -3.210938 11.644531 -3.40625 11.46875 -3.625 L 11.25 -3.90625 Z M 8.484375 -1.640625 "/></g></g></g><g fill="#004aad" fill-opacity="1"><g transform="translate(248.602808, 145.320975)"><g><path d="M 13.90625 -3.171875 L 4.40625 2.234375 L 6.71875 6.296875 L 4.34375 7.640625 L 0.5 0.875 L 12.375 -5.875 Z M 13.90625 -3.171875 "/></g></g></g><g fill="#004aad" fill-opacity="1"><g transform="translate(254.068735, 154.981267)"><g><path d="M 13.203125 -3.671875 L 14.53125 0.046875 C 15.175781 1.835938 15.113281 3.582031 14.34375 5.28125 C 13.570312 6.976562 12.265625 8.15625 10.421875 8.8125 C 8.578125 9.476562 6.816406 9.398438 5.140625 8.578125 C 3.472656 7.765625 2.316406 6.457031 1.671875 4.65625 L 0.34375 0.9375 Z M 4.015625 2.9375 L 4.171875 3.375 C 4.554688 4.4375 5.226562 5.175781 6.1875 5.59375 C 7.15625 6.019531 8.179688 6.046875 9.265625 5.671875 C 10.367188 5.273438 11.160156 4.601562 11.640625 3.65625 C 12.117188 2.71875 12.164062 1.710938 11.78125 0.640625 L 11.625 0.203125 Z M 4.015625 2.9375 "/></g></g></g></svg>